<?xml version="1.0" encoding="UTF-8"?>
<svg id="Capa_2" data-name="Capa 2" xmlns="http://www.w3.org/2000/svg" viewBox="0 0 84.57 88.24">
  <defs>
    <style>
      .cls-1 {
        fill: #ffe230;
      }
    </style>
  </defs>
  <g id="Capa_1-2" data-name="Capa 1">
    <g>
      <path class="cls-1" d="M26.14,0c.06.92.11,1.85.18,2.77.07.97.15,1.93.36,2.88.3,1.36,1.11,2.18,2.47,2.47.82.18,1.66.27,2.5.33,1.05.07,2.11.14,3.16.22-.71.05-1.42.09-2.14.14-1.17.08-2.35.13-3.51.4-.06.01-.12.03-.18.04-1.36.32-2.08,1.23-2.34,2.56-.18.91-.26,1.83-.33,2.75-.06.92-.12,1.83-.19,2.75-.03-.5-.06-1-.1-1.5-.08-1.2-.13-2.41-.33-3.6-.05-.27-.11-.53-.18-.79-.3-1.14-1.03-1.85-2.17-2.15-.76-.2-1.54-.3-2.32-.36-1.19-.09-2.37-.16-3.56-.25.73-.05,1.46-.09,2.19-.14,1.1-.07,2.21-.13,3.29-.36.24-.05.47-.12.7-.2.89-.3,1.48-.89,1.78-1.78.22-.65.34-1.32.39-2,.11-1.36.2-2.72.3-4.09,0-.03,0-.07,0-.1,0,0,0,0,0,0Z"/>
      <path class="cls-1" d="M31.38,15.13c.4-.04.91-.08,1.42-.13.07,0,.13-.02.2-.03.64-.12.93-.39,1.03-1.04.08-.53.11-1.08.16-1.61,0-.03,0-.07,0-.08.05.52.1,1.05.15,1.59.01.13.05.25.09.37.11.37.35.62.72.71.34.08.68.12,1.03.16.31.04.63.05.94.08-.46.04-.92.07-1.38.12-.21.02-.43.07-.63.13-.34.1-.58.32-.66.66-.09.43-.14.87-.2,1.31-.03.24-.03.47-.05.72-.05-.53-.1-1.05-.15-1.57,0-.09-.03-.17-.05-.26-.11-.52-.42-.85-.95-.93-.59-.09-1.18-.14-1.68-.19Z"/>
      <path class="cls-1" d="M68.43,47.53c-4.29-2.96-10.77-4.81-10.81-4.81,3.36,1.34,6.28,3.1,8.28,4.44-1.55.22-2.96,1.2-3.63,2.74-.3.69-.69,1.34-1.13,1.92-.51.66-1.09,1.26-1.75,1.77-.67.52-1.41.94-2.2,1.25-.03.01-.07.03-.11.04-.84.32-1.71.56-2.6.66-.88.1-1.77.07-2.64-.08-.74-.12-1.48-.34-2.2-.66-2.35-1.03-5.1.04-6.12,2.39-.35.81-.46,1.65-.35,2.46-1.89-1.66-4.74-4.42-7.12-7.81.15.3,3.99,7.13,8.44,10.49,0,0,0,0,0,.01.4.39.87.73,1.42.96,2.35,1.03,5.09-.04,6.12-2.39.3-.69.68-1.34,1.13-1.92.53-.68,1.12-1.29,1.8-1.81.7-.54,1.47-.97,2.3-1.28.84-.31,1.7-.55,2.58-.64.87-.1,1.75-.07,2.61.08.74.12,1.48.34,2.2.66,2.35,1.03,5.09-.04,6.12-2.39,1.03-2.34-.03-5.07-2.35-6.1Z"/>
      <path class="cls-1" d="M66.91,71.87c-2.33,1.58-4.97,2.28-7.75,2.04-.68-.06-1.28.54-1.32,1.2-.03.7.53,1.26,1.2,1.32,3.16.27,6.42-.56,9.05-2.33.57-.38.86-1.05.52-1.7-.29-.56-1.14-.89-1.7-.52Z"/>
      <path class="cls-1" d="M78.75,43.04c-7.22-11.17-36.06-20.11-36.41-20.22.17.15,5.97,5.51,5.03,7.09-.96,1.6-13.47-4.37-18.34-7.31-3.78-2.28-17.67-11.6-24.89-18.05C2.1,2.74.61,1.15,0,0c.1.38,1.23,4.52,3.29,10.68.53,1.59,1.11,3.33,1.75,5.16,2.29,6.57,5.33,14.48,8.98,22.34.05.11.1.21.15.32.39.82.77,1.65,1.18,2.47,3.81,7.94,8.26,15.69,13.19,21.79.26.34.54.67.81.99,11.9,14.15,4.58,11.09-.84,3.45-2.13-2.99-4.41-5.68-4.56-5.84.2.42,7.75,16.74,17.1,22.25,4.32,2.84,9.45,4.53,14.98,4.63,6.17.1,11.91-1.79,16.6-5.09,1.23-.85,2.39-1.82,3.46-2.86.64-.62,1.25-1.27,1.83-1.95,3.37-3.96,5.66-8.89,6.4-14.31.16-1.11.25-2.24.27-3.39.12-6.62-2.07-12.74-5.82-17.59ZM58,83.31c-10.31-.17-18.85-7.37-21.15-16.95-.22-.9-.62-1.74-1.18-2.47-2.97-3.85-4.98-8.18-5.06-8.35.09.1,1.44,1.69,2.71,3.46.61.86,1.26,1.62,1.87,2.23.38.39,1.05.12,1.06-.43v-.02c.01-.48-.13-.94-.42-1.32-.53-.71-1.19-1.54-2.01-2.51-.16-.19-.32-.38-.48-.59-2.92-3.62-5.56-8.21-7.82-12.91-.24-.49-.47-.97-.69-1.46-.03-.06-.06-.13-.09-.19-2.16-4.66-3.96-9.35-5.32-13.24-.38-1.09-.73-2.11-1.04-3.06-1.17-3.54-1.84-5.96-1.94-6.31.37.68,1.25,1.61,2.44,2.67,4.28,3.83,12.52,9.35,14.76,10.7,2.89,1.74,10.3,5.28,10.87,4.33.57-.95-1.27-2.99-1.27-2.99,0,0,5.96,1.57,11.51,4.35,1,.5,2.1.79,3.22.77.27,0,.53,0,.8,0,12.23.21,21.97,10.29,21.76,22.52-.21,12.23-10.29,21.97-22.52,21.76Z"/>
    </g>
  </g>
</svg>